<?xml version="1.0" standalone="no"?>
<!DOCTYPE svg PUBLIC "-//W3C//DTD SVG 1.1//EN" "http://www.w3.org/Graphics/SVG/1.1/DTD/svg11.dtd" >
<svg xmlns="http://www.w3.org/2000/svg">
<metadata></metadata>
<defs>
<font id="commeextrabold" horiz-adv-x="1378" >
<font-face units-per-em="2048" ascent="1638" descent="-410" />
<missing-glyph horiz-adv-x="615" />
<glyph unicode="&#xfb01;" horiz-adv-x="1456" d="M-4 878h146v-878h360v878h264v204h-264v76q0 70 40 100.5t120 30.5q47 0 136 -11l10 213q-124 30 -270 30q-396 0 -396 -363v-81l-141 -22zM910 1459q0 -87 54.5 -139.5t147.5 -52.5t147.5 52.5t54.5 139.5q0 84 -54.5 134.5t-147.5 50.5t-147.5 -50.5t-54.5 -134.5z M926 0h360v1082h-360v-1082z" />
<glyph unicode="&#xfb02;" horiz-adv-x="1602" d="M-8 878h146v-878h360v878h264v204h-264v76q0 70 40 100.5t120 30.5q47 0 136 -11l10 213q-124 30 -270 30q-396 0 -396 -363v-81l-141 -22zM889 361q0 -200 99 -286t334 -86q41 0 62 1l96 4l13 225h-1l-145 10q-98 6 -98 100v1231l-360 -20v-1179z" />
<glyph unicode="&#xfb03;" horiz-adv-x="2297" d="M-5 878h146v-878h360v878h264v204h-264v76q0 70 40 100.5t120 30.5q47 0 136 -11l10 213q-124 30 -270 30q-396 0 -396 -363v-81l-141 -22zM836 878h146v-878h360v878h264v204h-264v76q0 70 40 100.5t120 30.5q47 0 136 -11l10 213q-124 30 -270 30q-396 0 -396 -363v-81 l-141 -22zM1763 1459q0 -87 54.5 -139.5t147.5 -52.5t147.5 52.5t54.5 139.5q0 84 -54.5 134.5t-147.5 50.5t-147.5 -50.5t-54.5 -134.5zM1779 0h360v1082h-360v-1082z" />
<glyph unicode="&#xfb04;" horiz-adv-x="2443" d="M-11 878h146v-878h360v878h264v204h-264v76q0 70 40 100.5t120 30.5q47 0 136 -11l10 213q-124 30 -270 30q-396 0 -396 -363v-81l-141 -22zM830 878h146v-878h360v878h264v204h-264v76q0 70 40 100.5t120 30.5q47 0 136 -11l10 213q-124 30 -270 30q-396 0 -396 -363 v-81l-141 -22zM1758 361q0 -200 99 -286t334 -86q41 0 62 1l96 4l13 225h-1l-145 10q-98 6 -98 100v1231l-360 -20v-1179z" />
<glyph horiz-adv-x="0" />
<glyph unicode="&#xd;" horiz-adv-x="600" />
<glyph unicode=" "  horiz-adv-x="615" />
<glyph unicode="&#x09;" horiz-adv-x="615" />
<glyph unicode="&#xa0;" horiz-adv-x="615" />
<glyph unicode="!" horiz-adv-x="764" d="M214 159q0 -68 48 -117.5t116 -49.5q67 0 114 49.5t47 117.5q0 69 -46.5 117t-114.5 48q-69 0 -116.5 -48t-47.5 -117zM251 1319l72 -851h127l63 851v246h-262v-246z" />
<glyph unicode="&#x22;" horiz-adv-x="868" d="M88 1557l96 -647h157l48 647h-301zM490 1557l95 -647h158l48 647h-301z" />
<glyph unicode="#" horiz-adv-x="1110" d="M63 439h168l-78 -438h173l78 438h218l-79 -438h176l81 438h160l17 133h-154l63 373h153l19 137h-149l69 383h-179l-66 -383h-218l69 383h-176l-66 -383h-196l-18 -137h191l-65 -373h-171zM430 572l63 373h216l-65 -373h-214z" />
<glyph unicode="$" horiz-adv-x="1228" d="M76 236q31 -48 76.5 -90.5t110.5 -81.5t155.5 -61.5t194.5 -22.5q156 0 275 48.5t189 148t70 237.5q0 77 -15.5 138t-42 104.5t-71.5 79.5t-92 61t-116 53l-172 68q-102 41 -139 74.5t-37 93.5q1 71 47.5 106.5t116.5 35.5q58 -1 118.5 -39.5t88.5 -108.5h24l250 126 q-17 47 -56.5 92.5t-100 86.5t-150.5 66t-194 25q-85 0 -159.5 -14.5t-140.5 -47t-113.5 -80.5t-75 -119.5t-27.5 -159.5q0 -82 18.5 -145t56 -108t83.5 -75.5t110 -57.5l224 -92q110 -45 145 -83.5t35 -102.5q0 -143 -165 -143q-70 0 -142.5 47.5t-117.5 108.5h-33z M526 1771l2 -336h162v336h-164zM538 58v-338h172l-12 338h-160z" />
<glyph unicode="%" horiz-adv-x="2227" d="M115 1135q0 -179 112.5 -297t297.5 -118q184 0 303 119t119 296q0 178 -118 295t-304 117q-183 0 -296.5 -117.5t-113.5 -294.5zM332 1139q0 94 55.5 157.5t141.5 63.5q85 0 138.5 -62t53.5 -159q0 -96 -54 -160.5t-138 -64.5q-86 0 -141.5 64.5t-55.5 160.5zM578 0h248 l847 1527h-239zM1311 379q0 -178 117.5 -297.5t303.5 -119.5q184 0 303 120t119 297q0 178 -117.5 293.5t-304.5 115.5q-184 0 -302.5 -117t-118.5 -292zM1539 382q0 94 56 157.5t141 63.5t138.5 -62t53.5 -159q0 -95 -54 -160t-138 -65q-85 0 -141 65t-56 160z" />
<glyph unicode="&#x26;" horiz-adv-x="1420" d="M95 458q0 -122 37.5 -214t107 -148t162.5 -84t210 -28q235 0 420 152l155 -173l186 150l-176 196q21 27 43 58.5t37 54t40 62.5t34 55t37 62t33 55l-177 125q-99 -186 -193 -309l-329 366q132 70 226 177.5t94 211.5q0 81 -35.5 143.5t-93.5 98t-124.5 53t-136.5 17.5 q-62 0 -120 -13t-111.5 -41.5t-93 -69.5t-63 -100.5t-23.5 -130.5q0 -48 18.5 -99.5t47.5 -94.5t52.5 -72.5t45.5 -50.5q-42 -30 -56.5 -40t-56.5 -43t-61 -52.5t-50.5 -55.5t-46.5 -66.5t-27 -70.5t-12 -81zM366 427q0 20 1 31q3 38 28 81.5t55.5 75.5t54.5 52.5t32 24.5 l349 -392q-132 -103 -270 -103q-111 0 -180.5 59t-69.5 171zM510 1217q0 125 137 125q140 0 140 -120q0 -61 -55 -135.5t-121 -107.5q-60 70 -80.5 119.5t-20.5 118.5z" />
<glyph unicode="'" horiz-adv-x="633" d="M142 1555l95 -649h158l47 649h-300z" />
<glyph unicode="(" horiz-adv-x="876" d="M207 649q0 265 84 536.5t199 410.5h248v-40q-277 -298 -277 -907q0 -178 24 -331t65.5 -263t87.5 -187t100 -136v-29h-248q-115 139 -199 410t-84 536z" />
<glyph unicode=")" horiz-adv-x="876" d="M139 -268v-29h248q115 139 199 410t84 536t-84 536.5t-199 410.5h-248v-40q277 -298 277 -907q0 -178 -24 -331t-65.5 -263t-87.5 -187t-100 -136z" />
<glyph unicode="*" horiz-adv-x="1047" d="M23 1007l345 -81l-241 -320l231 -130l167 334l174 -336q-1 0 55.5 33t113.5 66l57 33q1 0 -47 64t-116.5 154t-77.5 102l349 81l-74 252l-339 -147l32 409h-253l34 -409l-337 147z" />
<glyph unicode="+" horiz-adv-x="1190" d="M103 617h367v-380h248v380h367v243h-366v372h-249v-372h-367v-243z" />
<glyph unicode="," horiz-adv-x="680" d="M185 -350h210l123 454v177h-297q0 -28 -9 -186t-18 -301z" />
<glyph unicode="-" horiz-adv-x="960" d="M143 422h683v224h-683v-224z" />
<glyph unicode="." horiz-adv-x="734" d="M189 155q0 -79 49 -120t122 -41q75 0 123 41.5t48 119.5q0 81 -48 124t-123 43q-74 0 -122.5 -43t-48.5 -124z" />
<glyph unicode="/" horiz-adv-x="1021" d="M58 -183h216l653 1743h-220z" />
<glyph unicode="0" d="M81 729q0 -346 163.5 -547.5t445.5 -201.5q281 0 444 201.5t163 547.5q0 344 -163 545.5t-444 201.5q-282 0 -445.5 -201.5t-163.5 -545.5zM479 729q2 219 59 347t152 128q97 0 153 -127t56 -348q0 -223 -56 -350.5t-153 -127.5q-98 0 -154.5 127.5t-56.5 350.5z" />
<glyph unicode="1" d="M193 0h1086v251h-326v1205h-332q-71 -54 -191.5 -106t-235.5 -85v-239q77 9 180.5 40.5t189.5 69.5v-885h-371v-251z" />
<glyph unicode="2" d="M115 1204l168 -177h26q67 81 164.5 131t195.5 50q84 0 137 -51.5t53 -135.5q0 -62 -32 -120.5t-101 -126.5l-542 -533l57 -241h938l10 249h-581l320 302q146 138 208.5 247.5t62.5 215.5q0 70 -16 133.5t-54.5 124.5t-97 105.5t-151 71.5t-208.5 27q-177 0 -319 -78.5 t-238 -193.5z" />
<glyph unicode="3" horiz-adv-x="1225" d="M60 189q14 -22 50 -52.5t96 -68t154 -63t197 -25.5q83 0 160 14t150 47t127 82t86.5 124.5t32.5 169.5q0 57 -17 109t-54.5 101t-105.5 83t-161 44q295 48 295 339q-2 99 -42 174t-111.5 120t-165 67t-208.5 22q-86 0 -163 -18.5t-134 -51t-99 -67.5t-73 -75l159 -176 l21 -6q115 117 265 122q95 0 142 -39.5t51 -123.5q0 -121 -73 -162.5t-240 -41.5l-107 -2l21 -212h90q65 0 111 -4t89.5 -16t70 -32.5t42 -55.5t15.5 -83q0 -86 -50 -135t-153 -49q-96 0 -173.5 37t-125.5 89h-26z" />
<glyph unicode="4" d="M92 543l19 -218h588v-325h379v325h201l16 238h-217v893h-442zM369 557l329 556v-556h-329z" />
<glyph unicode="5" d="M168 209q79 -117 205 -173t321 -56q162 0 282 69.5t178.5 182.5t58.5 253q0 89 -27.5 171t-81.5 150.5t-146 110t-209 41.5q-140 0 -225 -73l43 331h545l34 240h-857l-63 -813l261 -43q32 123 200 123q88 -1 140 -66t52 -155q0 -121 -57 -187t-169 -66q-86 0 -167 36 t-125 112h-20z" />
<glyph unicode="6" d="M130 467q0 -218 148 -352.5t408 -134.5q258 0 407.5 128.5t149.5 339.5q0 92 -26 168.5t-69 127.5t-101 86.5t-119.5 51.5t-125.5 16q-80 0 -165 -37q69 81 139.5 171.5t164 215.5t133.5 177v31h-400l-390 -563q-78 -112 -116 -208.5t-38 -217.5zM494 458 q0 112 53.5 176.5t139.5 64.5q88 0 139.5 -65t51.5 -175q0 -105 -51.5 -167.5t-140.5 -62.5q-88 0 -140 62t-52 167z" />
<glyph unicode="7" d="M185 1456l9 -260h619l-493 -1196h394l493 1190l-6 266h-1016z" />
<glyph unicode="8" d="M137 391q0 -195 147 -303t410 -108q260 0 403.5 108t143.5 303q0 145 -61 245.5t-171 142.5q207 81 207 332q0 174 -145.5 269.5t-379.5 95.5q-152 0 -269.5 -40.5t-187.5 -124.5t-70 -200q0 -257 220 -332q-116 -42 -181.5 -143.5t-65.5 -244.5zM520 1092q0 75 47.5 119 t126.5 44q78 0 122.5 -43.5t44.5 -119.5q0 -85 -44 -153t-123 -102q-81 35 -127.5 103t-46.5 152zM521 404q0 104 47.5 180t125.5 102q77 -26 122.5 -101.5t45.5 -179.5q0 -103 -39.5 -151t-128.5 -48t-131 48.5t-42 149.5z" />
<glyph unicode="9" d="M149 1010q0 -114 39.5 -204t104 -142.5t140 -79t155.5 -26.5q84 0 164 35q-68 -80 -136.5 -169t-160.5 -216.5t-129 -176.5v-31h386l395 564q78 111 116.5 207.5t38.5 217.5q0 218 -148.5 352.5t-408.5 134.5q-257 0 -406.5 -128t-149.5 -338zM511 998q0 105 52 167.5 t141 62.5t140.5 -62.5t51.5 -167.5q0 -112 -53.5 -176.5t-139.5 -64.5h-2q-88 0 -139 65.5t-51 175.5z" />
<glyph unicode=":" horiz-adv-x="707" d="M188 155q0 -78 49 -119.5t124 -41.5t123.5 41.5t48.5 119.5q0 81 -48.5 124.5t-123.5 43.5t-124 -44t-49 -124zM188 948q0 -78 49 -119.5t124 -41.5t123.5 41.5t48.5 119.5q0 81 -48.5 124.5t-123.5 43.5t-124 -44t-49 -124z" />
<glyph unicode=";" horiz-adv-x="764" d="M203 -350h210l124 454v177h-297q0 -28 -9 -185.5t-19 -301.5zM212 948q0 -78 49 -119.5t123 -41.5q76 0 124.5 41.5t48.5 119.5q0 81 -48.5 124.5t-124.5 43.5q-74 0 -123 -43.5t-49 -124.5z" />
<glyph unicode="&#x3c;" horiz-adv-x="1107" d="M55 652l946 -465v254l-608 288l608 315v244l-946 -496v-140z" />
<glyph unicode="=" horiz-adv-x="1269" d="M94 489h1055v220h-1055v-220zM94 921h1055v220h-1055v-220z" />
<glyph unicode="&#x3e;" horiz-adv-x="1107" d="M84 188l945 464v140l-945 497v-244l607 -316l-607 -287v-254z" />
<glyph unicode="?" horiz-adv-x="1074" d="M114 1411l85 -245q131 73 249 73q79 0 116 -40t37 -104q0 -39 -16.5 -79.5t-46 -86.5t-63 -98.5t-76 -139t-76.5 -185.5l76 -28q52 80 130 153.5t143.5 125.5t126.5 112.5t96 144t35 191.5q0 106 -59.5 187t-154.5 121t-208 40q-101 0 -212 -35.5t-182 -106.5zM204 141 q0 -73 43.5 -116.5t118.5 -43.5q72 0 114 43.5t42 116.5q0 74 -42 117t-114 43q-75 0 -118.5 -43t-43.5 -117z" />
<glyph unicode="@" horiz-adv-x="2026" d="M152 699q0 -193 62 -349t174.5 -260t270 -159.5t347.5 -55.5q167 0 320.5 39t249.5 114l-64 161q-197 -111 -503 -111q-140 0 -254 48t-189 131.5t-115.5 196t-40.5 241.5q0 106 28 206.5t83.5 187t133.5 152t184.5 102.5t228.5 37q119 0 219 -29.5t169 -80t116.5 -119 t70 -145t22.5 -159.5q0 -186 -58 -290.5t-133 -104.5q-37 0 -59.5 31t-22.5 87q0 58 10 138.5t30 208t29 195.5q-64 34 -169.5 62t-208.5 28q-116 0 -213 -47.5t-159 -126t-96 -175t-34 -197.5q0 -171 90.5 -280t268.5 -109q98 0 174.5 63.5t114.5 171.5q10 -49 42 -87 t65.5 -56.5t76 -41.5t61.5 -40q77 0 152 36.5t138.5 104t102.5 177.5t39 244q0 219 -111 391.5t-300 265.5t-420 93q-197 0 -369 -69.5t-293.5 -188.5t-191 -283.5t-69.5 -348.5zM834 639q0 100 31.5 186t93 141t140.5 55q51 0 106 -10l-38 -236q-25 -177 -72 -251t-137 -74 q-124 0 -124 189z" />
<glyph unicode="A" horiz-adv-x="1538" d="M53 0h383l114 362h432l120 -362h383l-474 1456h-478zM619 593l152 557l147 -557h-299z" />
<glyph unicode="B" horiz-adv-x="1444" d="M171 20q233 -18 439 -18q180 0 311 18.5t215.5 52.5t134 88.5t69 119.5t19.5 153q0 154 -74.5 234.5t-240.5 112.5q132 40 204.5 118t72.5 184q0 79 -21.5 140t-52 101t-88.5 68t-107.5 42.5t-133.5 22t-141 9t-155 1.5q-176 0 -451 -13v-1434zM552 250v403h149 q61 0 100.5 -3.5t76.5 -15t58 -32.5t33 -56t12 -85q0 -127 -73.5 -170.5t-262.5 -43.5q-48 0 -93 3zM552 875v356q32 1 98 1q78 0 125 -6.5t82.5 -26.5t50 -57t14.5 -97q0 -170 -215 -170h-155z" />
<glyph unicode="C" horiz-adv-x="1593" d="M116 733q0 -362 193 -557.5t543 -195.5q131 0 237.5 31t173 77.5t115.5 109.5t72 117.5t35 111.5l-279 113h-28q-11 -44 -27.5 -84t-44 -81t-61 -70.5t-82 -48t-105.5 -18.5h-2q-334 0 -334 495q0 132 21.5 223.5t65.5 146.5t104.5 81.5t145.5 32.5h11q67 0 121.5 -28 t90.5 -75t59 -96.5t37 -104.5h28l279 113q-8 38 -23 76.5t-41 84t-60.5 85.5t-85 78t-110 65.5t-140 44t-172.5 16.5q-350 0 -543.5 -194.5t-193.5 -548.5z" />
<glyph unicode="D" horiz-adv-x="1555" d="M171 6q166 -17 323 -17q214 0 377.5 36.5t270.5 102t174 163t95 211t28 256.5q0 261 -89.5 414.5t-288.5 224.5t-540 71q-151 0 -350 -14v-1448zM552 260v953q18 1 51 1q88 0 158.5 -13t119 -35t83.5 -57t55.5 -71.5t32.5 -86.5t15.5 -95t3.5 -103q0 -119 -24 -207 t-78.5 -154t-148 -99.5t-225.5 -33.5q-28 0 -43 1z" />
<glyph unicode="E" horiz-adv-x="1361" d="M171 0h1058l4 260h-682v359h624v253h-624v333h643l20 251h-1043v-1456z" />
<glyph unicode="F" horiz-adv-x="1256" d="M171 0h381v589h586v252h-586v352h613l17 263h-1011v-1456z" />
<glyph unicode="G" horiz-adv-x="1594" d="M116 727q0 -359 193 -553t531 -194q385 0 607 104v738h-608l-9 -239l304 -20v-287q-101 -39 -233 -39q-64 0 -117 13t-103 47t-84 88t-54.5 141t-20.5 201q0 255 87.5 372.5t267.5 117.5q61 0 110 -18.5t83.5 -54t57 -70.5t43.5 -82h27l253 132q-63 163 -212.5 257.5 t-395.5 94.5q-339 0 -533 -196.5t-194 -552.5z" />
<glyph unicode="H" horiz-adv-x="1594" d="M172 -6h380v626h490v-626h380v1462h-380v-585h-490v585h-380v-1462z" />
<glyph unicode="I" horiz-adv-x="1051" d="M119 -6h812v204h-213v1054h213v204h-812v-204h220v-1054h-220v-204z" />
<glyph unicode="J" horiz-adv-x="817" d="M-55 -289l133 -292l167 74q70 31 124 60t95 61t70 61.5t49.5 68t32 73t17.5 85t8 95t2 110.5q0 24 -0.5 78.5t-0.5 85.5v1185h-379v-1176q0 -100 -1 -157.5t-5.5 -112.5t-12 -82t-22.5 -53.5t-33.5 -40t-48.5 -28.5z" />
<glyph unicode="K" horiz-adv-x="1452" d="M171 0h381v529l50 60l427 -589h424v6l-573 788l519 659v3h-418l-429 -559v559h-381v-1456z" />
<glyph unicode="L" horiz-adv-x="1205" d="M171 0h995l20 239h-634v1217h-381v-1456z" />
<glyph unicode="M" horiz-adv-x="1905" d="M153 -6h355v561l8 347l318 -665h228l325 664l7 -343v-564h358v627l-22 835h-378l-395 -794l-396 794h-386l-22 -844v-618z" />
<glyph unicode="N" horiz-adv-x="1637" d="M171 0h365v530l-17 359l575 -889h372v1456h-355v-553l17 -380l-598 933h-359v-1456z" />
<glyph unicode="O" horiz-adv-x="1661" d="M116 723q0 -357 187 -551t529 -194q344 0 528.5 193.5t184.5 552.5q0 357 -186.5 554.5t-527.5 197.5t-528 -197.5t-187 -555.5zM522 722q0 228 80.5 355t229.5 127q150 0 228 -126.5t78 -355.5q0 -228 -77.5 -350t-227.5 -122q-152 0 -231.5 122t-79.5 350z" />
<glyph unicode="P" horiz-adv-x="1457" d="M171 0h381v496q65 -4 140 -4q194 0 330 34t215.5 102.5t115 161t35.5 218.5q0 122 -38.5 205.5t-131.5 142.5t-250.5 86t-393.5 27q-176 0 -403 -15v-1454zM552 740v485q60 2 85 2q99 0 170 -12.5t112.5 -32t65.5 -51.5t31.5 -64.5t7.5 -76.5q0 -45 -9.5 -80.5t-35 -69 t-67.5 -55.5t-110.5 -35t-160.5 -13q-41 0 -89 3z" />
<glyph unicode="Q" horiz-adv-x="1662" d="M116 723q0 -357 187 -551t529 -194q344 0 528.5 193.5t184.5 552.5q0 357 -186.5 554.5t-527.5 197.5t-528 -197.5t-187 -555.5zM522 722q0 228 80.5 355t229.5 127q150 0 228 -126.5t78 -355.5q0 -228 -77.5 -350t-227.5 -122q-152 0 -231.5 122t-79.5 350zM749 86 q24 -78 201 -301t296 -321l239 199q-112 95 -218 221t-182 244z" />
<glyph unicode="R" horiz-adv-x="1494" d="M171 0h381v606h165l309 -606h414v16l-344 642q42 14 77 32t71.5 48.5t61.5 70t41 97.5t16 129q0 131 -34 216.5t-114 136.5t-197.5 71.5t-297.5 20.5q-175 0 -549 -26v-1454zM552 833v380q134 11 200 11q131 0 198 -39.5t67 -142.5q0 -119 -60 -164t-207 -45h-198z" />
<glyph unicode="S" horiz-adv-x="1228" d="M76 236q31 -48 76.5 -90.5t110.5 -81.5t155.5 -61.5t194.5 -22.5q156 0 275 48.5t189 148t70 237.5q0 77 -15.5 138t-42 104.5t-71.5 79.5t-92 61t-116 53l-172 68q-102 41 -139 74.5t-37 93.5q1 71 47.5 106.5t116.5 35.5q58 -1 118.5 -39.5t88.5 -108.5h24l250 126 q-17 47 -56.5 92.5t-100 86.5t-150.5 66t-194 25q-85 0 -159.5 -14.5t-140.5 -47t-113.5 -80.5t-75 -119.5t-27.5 -159.5q0 -82 18.5 -145t56 -108t83.5 -75.5t110 -57.5l224 -92q110 -45 145 -83.5t35 -102.5q0 -143 -165 -143q-70 0 -142.5 47.5t-117.5 108.5h-33z" />
<glyph unicode="T" horiz-adv-x="1280" d="M42 1217h409v-1223h379v1223h408v239h-1196v-239z" />
<glyph unicode="U" horiz-adv-x="1528" d="M143 533q0 -264 157.5 -408.5t459.5 -144.5q301 0 463 146t162 407v923h-380v-899q0 -158 -61.5 -232t-183.5 -74q-118 0 -178 73t-60 231v901h-379v-923z" />
<glyph unicode="V" horiz-adv-x="1379" d="M7 1456l450 -1462h429l486 1462h-366l-281 -959l-42 -171q-57 226 -173 643t-135 487h-368z" />
<glyph unicode="W" horiz-adv-x="2047" d="M49 1456l349 -1456h346l273 973l259 -973h344l378 1456h-367l-199 -967l-265 961h-301l-263 -954l-188 960h-366z" />
<glyph unicode="X" horiz-adv-x="1421" d="M-10 -6h393l316 477l318 -477h414l-496 745l471 717h-407l-262 -418l-279 418h-414l458 -688z" />
<glyph unicode="Y" horiz-adv-x="1348" d="M0 1456l483 -886v-570h380v574l485 882h-399l-277 -529l-272 529h-400z" />
<glyph unicode="Z" horiz-adv-x="1266" d="M107 0h1080l-14 239h-617l600 1004v213h-1040l16 -240h614l-639 -1019v-197z" />
<glyph unicode="[" horiz-adv-x="823" d="M226 -250h448v209h-198v1317h198v207h-448v-1733z" />
<glyph unicode="\" horiz-adv-x="937" d="M93 1507l475 -1489h255l-470 1489h-260z" />
<glyph unicode="]" horiz-adv-x="965" d="M296 -41v-209h448v1733h-448v-207h198v-1317h-198z" />
<glyph unicode="^" horiz-adv-x="1501" d="M108 272h355l278 647l298 -647h354l-583 1184h-153z" />
<glyph unicode="_" horiz-adv-x="1001" d="M0 -89v-199h1001v199h-1001z" />
<glyph unicode="`" horiz-adv-x="1078" d="M83 1614l340 -407h198l-174 407h-364z" />
<glyph unicode="a" horiz-adv-x="1162" d="M84 305q0 -155 90 -238t241 -83q206 0 340 134l37 -118h263v633q0 122 -35 213.5t-98.5 146.5t-145.5 81.5t-182 26.5q-230 0 -470 -120l65 -212q209 84 343 84q173 0 173 -154v-73l-143 1h-5q-69 0 -132.5 -9t-127 -31.5t-109.5 -58t-75 -93t-29 -130.5zM402 311 q0 155 236 155l65 -1v-215q-67 -74 -173 -74q-53 0 -90.5 34.5t-37.5 100.5z" />
<glyph unicode="b" horiz-adv-x="1268" d="M128 0h318l10 135q39 -66 111 -110.5t178 -44.5q216 0 330 155t114 414q0 160 -46 282.5t-144.5 196.5t-238.5 74h-2q-196 0 -285 -160l10 207v411l-355 -20v-1540zM483 290v275q0 308 193 308q73 0 112 -71.5t39 -252.5q0 -176 -46 -258.5t-119 -82.5q-70 0 -109 21 t-70 61z" />
<glyph unicode="c" horiz-adv-x="1129" d="M79 541q0 -259 152 -410t412 -151q159 0 265 63t166 199l-218 117h-13q-18 -62 -68.5 -99.5t-114.5 -37.5h-2q-92 0 -156.5 80.5t-64.5 238.5t64.5 239t156.5 81q64 0 115.5 -38t70.5 -100h12l218 118q-60 135 -166 198t-265 63q-260 0 -412 -151t-152 -410z" />
<glyph unicode="d" horiz-adv-x="1268" d="M83 533q0 -160 47 -282.5t146 -196.5t240 -74q211 0 298 186l8 -166h319v1560l-354 -20v-402l4 -160q-95 124 -267 124q-145 0 -245.5 -73.5t-148 -199.5t-47.5 -296zM442 533q0 103 15 174t41.5 105.5t55.5 48.5t65 14q102 0 167 -82v-486q-27 -46 -74 -71.5t-106 -25.5 q-164 0 -164 323z" />
<glyph unicode="e" horiz-adv-x="1199" d="M79 542q0 -259 157.5 -410.5t425.5 -151.5q135 0 250.5 37t179.5 97l-77 183h-17q-141 -89 -296 -89q-110 0 -181 59t-83 167h655q13 57 13 143q-3 119 -31 212t-84 165t-148.5 110t-218.5 38q-250 0 -397.5 -151t-147.5 -409zM441 624q11 253 201 253q82 0 123 -61 t41 -192h-365z" />
<glyph unicode="f" horiz-adv-x="841" d="M35 878h146v-878h360v878h264v204h-264v76q0 70 40 100.5t120 30.5q47 0 136 -11l10 213q-124 30 -270 30q-396 0 -396 -363v-81l-141 -22z" />
<glyph unicode="g" horiz-adv-x="1257" d="M79 563q0 -113 19 -204.5t53.5 -151.5t76.5 -102.5t93.5 -65t99 -32t99.5 -9.5q189 0 281 102l9 -77q3 -25 3 -49q0 -135 -80 -196t-218 -61q-119 0 -267 45h-29l-25 -228q163 -46 390 -46q116 0 214 29t175 87.5t120.5 156.5t43.5 226v1095h-350l-1 -91 q-94 111 -254 111q-83 0 -160.5 -30.5t-144.5 -92t-107.5 -169t-40.5 -247.5zM439 562q0 311 182 311q59 0 92 -17t71 -56v-533q-29 -26 -76 -42.5t-93 -16.5q-83 0 -129.5 86.5t-46.5 267.5z" />
<glyph unicode="h" horiz-adv-x="1273" d="M137 0h360v621q0 128 44 190t119 62q71 0 103 -53.5t32 -193.5v-626h361v673q0 205 -87 317t-264 112q-227 0 -314 -199l6 256v401l-360 -20v-1540z" />
<glyph unicode="i" horiz-adv-x="653" d="M127 1459q0 -87 54.5 -139.5t147.5 -52.5t147.5 52.5t54.5 139.5q0 84 -54.5 134.5t-147.5 50.5t-147.5 -50.5t-54.5 -134.5zM143 0h360v1082h-360v-1082z" />
<glyph unicode="j" horiz-adv-x="696" d="M-94 -308l126 -259l90 40q181 81 247 125q119 80 157 200q23 72 23 171v1113h-360v-1080q0 -61 -5.5 -95t-26.5 -66t-56.5 -55t-101.5 -52zM178 1459q0 -87 54.5 -139.5t147.5 -52.5t147.5 52.5t54.5 139.5q0 84 -55 134.5t-147 50.5t-147 -50.5t-55 -134.5z" />
<glyph unicode="k" horiz-adv-x="1218" d="M137 0h360v427l47 48l302 -475h360v31l-392 582l377 451v18h-373l-326 -381l5 139v720l-360 -20v-1540z" />
<glyph unicode="l" horiz-adv-x="769" d="M134 361q0 -200 99 -286t334 -86q41 0 62 1l96 4l13 225h-1l-145 10q-98 6 -98 100v1231l-360 -20v-1179z" />
<glyph unicode="m" horiz-adv-x="1914" d="M128 0h360v624q1 127 45 188t115 61t102.5 -54.5t31.5 -196.5v-622h360v670q1 83 49 143t112 60q71 0 102.5 -55t31.5 -193v-625h360v675q0 201 -94.5 314t-272.5 113q-230 0 -329 -201q-32 111 -108.5 156t-197.5 45q-120 0 -207.5 -55t-131.5 -140l-19 175h-309v-1082z " />
<glyph unicode="n" horiz-adv-x="1267" d="M131 0h361v622q0 129 44 190t119 61q71 0 102.5 -54t31.5 -192v-627h361v671q0 204 -94.5 317.5t-273.5 113.5q-224 0 -323 -189l-18 169h-310v-1082z" />
<glyph unicode="o" horiz-adv-x="1254" d="M79 545q0 -255 148 -411t401 -156q252 0 399.5 156t147.5 411q0 249 -148.5 403t-398.5 154q-251 0 -400 -154t-149 -403zM438 545q0 328 190 328q188 0 188 -328q0 -337 -188 -337q-190 0 -190 337z" />
<glyph unicode="p" horiz-adv-x="1272" d="M131 -476h354v421l-4 158q95 -123 268 -123q215 0 327.5 155t112.5 414q0 160 -46 282.5t-144.5 196.5t-238.5 74q-218 0 -302 -194l-8 174h-319v-1558zM486 290v460q23 58 70.5 90.5t112.5 32.5q161 0 161 -324q0 -103 -14.5 -173.5t-41.5 -105.5t-55.5 -48.5 t-64.5 -13.5q-103 0 -168 82z" />
<glyph unicode="q" horiz-adv-x="1261" d="M83 550q0 -170 47 -296.5t148 -200t246 -73.5q170 0 267 124l-4 -155v-425h353v1558h-318l-8 -164q-86 184 -299 184q-140 0 -239 -73.5t-146 -196t-47 -282.5zM441 550q0 323 165 323q59 0 105.5 -26.5t73.5 -73.5v-484q-62 -81 -166 -81q-29 0 -52.5 7.5t-48 30 t-40.5 59.5t-26.5 99.5t-10.5 145.5z" />
<glyph unicode="r" horiz-adv-x="877" d="M121 0h360v609q0 99 76 157t183 58q12 0 34 -2l58 -7l22 260q-65 13 -136 13q-76 0 -149 -44.5t-116 -134.5l-18 173h-314v-1082z" />
<glyph unicode="s" horiz-adv-x="1011" d="M55 193q85 -110 205 -161.5t285 -51.5q115 0 210 37t155 114t60 182q0 55 -8.5 93.5t-34.5 79t-78 76t-134 71.5l-149 65q-55 24 -75 45.5t-20 46.5q0 35 28 54.5t74 19.5q54 -1 112 -25.5t99 -75.5h14l155 143q-117 196 -436 196q-194 0 -308 -86.5t-114 -235.5 q0 -119 69.5 -194.5t223.5 -134.5l109 -40q76 -28 104 -53t28 -55q0 -40 -24.5 -65t-77.5 -25q-173 0 -278 133h-30z" />
<glyph unicode="t" horiz-adv-x="896" d="M33 876h162v-455q0 -65 4 -113t15.5 -95.5t31.5 -80t53 -61.5t79.5 -45.5t111 -26t147.5 -9.5l214 7l10 232l-160 7q-88 4 -120 42.5t-32 130.5v467h288v206h-288v338l-325 -26l-19 -309l-165 -20z" />
<glyph unicode="u" horiz-adv-x="1263" d="M117 409q0 -203 95.5 -316t275.5 -113q220 0 321 180l17 -160h310v1082h-360v-786q-68 -87 -162 -87q-72 0 -104.5 53.5t-32.5 191.5v628h-360v-673z" />
<glyph unicode="v" horiz-adv-x="1101" d="M6 1082l371 -1082h357l362 1082h-360l-117 -479l-48 -221q-21 79 -197 700h-368z" />
<glyph unicode="w" horiz-adv-x="1535" d="M2 1082l257 -1088h319l204 733l148 -733h335l264 1088h-304l-125 -733l-156 733h-319l-182 -748l-110 748h-331z" />
<glyph unicode="x" horiz-adv-x="1098" d="M-4 -6h337l204 289l189 -289h381l-363 551l340 537h-332l-180 -276l-182 276h-376l353 -539z" />
<glyph unicode="y" horiz-adv-x="1136" d="M-29 1082l429 -930l-219 -493l285 -112l685 1535h-332l-243 -600l-256 600h-349z" />
<glyph unicode="z" horiz-adv-x="957" d="M65 870h447l-446 -699v-171h854l7 220h-456l429 669v193h-829z" />
<glyph unicode="{" horiz-adv-x="960" d="M188 533q51 0 88.5 -7t60.5 -22t37.5 -31t20.5 -42t8 -46t2 -51v-386q0 -50 13.5 -90.5t35.5 -68t56.5 -47.5t69 -31.5t80 -18t84 -8.5t85.5 -2v189q-44 1 -68.5 4t-50 11.5t-37.5 24.5t-19.5 43.5t-7.5 68.5v343q0 38 -3 67t-15 64.5t-32.5 61t-58.5 47.5t-91 32 q53 10 91 32t58.5 47.5t32.5 61.5t15 65t3 67v343q0 51 9.5 81t35.5 45t54.5 19.5t83.5 5.5v190q-47 0 -85.5 -2t-84 -8.5t-80 -18t-69 -31.5t-56.5 -47.5t-35.5 -68t-13.5 -90.5v-386q0 -38 -2.5 -61.5t-14.5 -52.5t-34 -45.5t-64 -28t-102 -11.5v-211z" />
<glyph unicode="|" horiz-adv-x="739" d="M271 -508h207v1984h-207v-1984z" />
<glyph unicode="}" horiz-adv-x="960" d="M164 -129v-189q47 0 85.5 2t84 8.5t80 18t69 31.5t56.5 47.5t35.5 68t13.5 90.5v386q0 31 2 51t8 46t20.5 42t37.5 31t60.5 22t87.5 7v211q-50 0 -87.5 7t-60.5 22t-37.5 31t-20.5 42t-8 46t-2 51v386q0 50 -13.5 90.5t-35.5 68t-56.5 47.5t-69 31.5t-80 18t-84 8.5 t-85.5 2v-190q55 -1 83.5 -5.5t54.5 -19.5t35.5 -45t9.5 -81v-343q0 -38 3 -67t15 -65t32.5 -61.5t58.5 -47.5t91 -32q-53 -10 -91 -32t-58.5 -47.5t-32.5 -61t-15 -64.5t-3 -67v-343q0 -51 -9.5 -81t-35.5 -45t-54.5 -19.5t-83.5 -6.5z" />
<glyph unicode="~" horiz-adv-x="1192" d="M87 629l95 -159q75 139 182 139q48 0 89.5 -13.5t102.5 -43.5q80 -37 137 -54.5t124 -17.5q104 0 194 59t131 139l-89 150q-63 -69 -114 -99t-105 -30q-68 0 -203 62q-144 64 -256 64q-192 0 -288 -196z" />
<glyph unicode="&#xa1;" horiz-adv-x="764" d="M212 1070q0 -69 46.5 -117t114.5 -48q69 0 116.5 48t47.5 117q0 68 -48 117.5t-116 49.5q-67 0 -114 -49.5t-47 -117.5zM238 -90v-246h262v246l-72 851h-127z" />
<glyph unicode="&#xa2;" horiz-adv-x="1129" d="M79 541q0 -259 152 -410t412 -151q159 0 265 63t166 199l-218 117h-13q-18 -62 -68.5 -99.5t-114.5 -37.5h-2q-92 0 -156.5 80.5t-64.5 238.5t64.5 239t156.5 81q64 0 115.5 -38t70.5 -100h12l218 118q-60 135 -166 198t-265 63q-260 0 -412 -151t-152 -410zM554 -297 h136l3 353h-130zM564 1035h130l18 328h-147z" />
<glyph unicode="&#xa3;" horiz-adv-x="1220" d="M85 666h187v-417l-177 -22l10 -227h1025l4 251h-500v415h307v205h-307v170q0 111 48 169.5t137 58.5h2q83 0 197 -57h21l114 214q-18 15 -48.5 32t-83 40.5t-126.5 39t-152 15.5q-249 0 -360 -147t-111 -425v-110h-187v-205z" />
<glyph unicode="&#xa4;" horiz-adv-x="1110" d="M36 1155l180 -177q-68 -113 -68 -232q0 -124 68 -233l-179 -176l110 -107l173 170q103 -79 241 -79q130 0 238 82l181 -174l104 111l-176 173q67 105 67 233q0 123 -68 232l178 176l-105 112l-181 -174q-103 81 -238 81q-126 0 -238 -80l-176 173zM309 746 q0 109 74.5 186.5t177.5 77.5q105 0 181 -77.5t76 -186.5q0 -110 -75 -186t-182 -76q-103 0 -177.5 76.5t-74.5 185.5z" />
<glyph unicode="&#xa5;" horiz-adv-x="1348" d="M0 1456l483 -886v-570h380v574l485 882h-399l-277 -529l-272 529h-400zM184 239h952v142h-952v-142zM184 534h952v141h-952v-141z" />
<glyph unicode="&#xa6;" horiz-adv-x="763" d="M252 296v-686h226v686h-226zM252 754h226v686h-226v-686z" />
<glyph unicode="&#xa7;" horiz-adv-x="1023" d="M150 1226q0 -82 39.5 -145t120.5 -118q-147 -112 -147 -228q0 -92 61 -148.5t202 -118.5q116 -50 155.5 -83t39.5 -71q0 -52 -34 -79.5t-96 -27.5q-77 0 -171 30.5t-149 64.5v-237q72 -38 160.5 -62t164.5 -24q184 0 288.5 89t104.5 284q0 133 -110 222q57 48 88.5 103 t31.5 131q0 88 -50.5 151t-173.5 117q-110 47 -162.5 77.5t-64.5 48t-12 45.5q0 76 130 76q61 0 129 -17.5t117 -44.5l61 183q-75 50 -165 77t-166 27q-56 0 -107 -8t-104.5 -30.5t-92 -57.5t-63.5 -93t-25 -133zM380 818q0 26 15 48t32 30q1 0 25 -9.5t61 -25.5t63 -29 q110 -54 110 -119q0 -36 -34 -67l-35 16t-42 18q-125 58 -160 81.5t-35 56.5z" />
<glyph unicode="&#xa8;" horiz-adv-x="1104" d="M125 1382q0 -74 42.5 -116.5t116.5 -42.5q72 0 114 43t42 116q0 74 -42 117.5t-114 43.5q-74 0 -116.5 -43.5t-42.5 -117.5zM642 1382q0 -73 43 -116t117 -43q73 0 115 42.5t42 116.5q0 75 -42 118t-115 43q-74 0 -117 -43.5t-43 -117.5z" />
<glyph unicode="&#xa9;" horiz-adv-x="1792" d="M103 729q0 -131 39.5 -251.5t112.5 -216.5t169.5 -167.5t216 -110t247.5 -38.5q160 0 305 60.5t250.5 164.5t168 250t62.5 309t-62.5 308.5t-168 249t-250.5 164t-305 60.5q-214 0 -394 -102.5t-285.5 -282.5t-105.5 -397zM276 729q0 129 48.5 245t130.5 199t195 131.5 t238 48.5t238 -48.5t195 -131.5t130.5 -199t48.5 -245q0 -173 -82 -317t-222.5 -226.5t-307.5 -82.5t-307.5 82.5t-222.5 226.5t-82 317zM433 738q0 -118 40 -213t108 -153.5t152 -89.5t177 -31q156 0 284 80l-48 127q-112 -60 -222 -60q-131 0 -215 87.5t-84 252.5 q0 164 83.5 252t214.5 88q109 0 222 -61l48 127q-127 80 -284 80q-92 0 -176 -31t-152 -89.5t-108 -153t-40 -212.5z" />
<glyph unicode="&#xaa;" horiz-adv-x="1150" d="M138 872q0 -134 77.5 -206t208.5 -72q178 0 294 116l32 -102h227v547q0 106 -30 185t-85 126.5t-126 70.5t-157 23q-199 0 -407 -104l56 -183q181 73 297 73q150 0 150 -134v-63l-124 1h-4q-60 0 -115 -7.5t-110 -27t-94.5 -50.5t-64.5 -80.5t-25 -112.5zM413 877 q0 134 204 134l56 -1v-186q-58 -64 -150 -64q-45 0 -77.5 30t-32.5 87z" />
<glyph unicode="&#xab;" horiz-adv-x="1048" d="M38 572l318 -443h188l-249 446l254 445h-191zM470 572l318 -443h188l-248 446l252 445h-191z" />
<glyph unicode="&#xac;" horiz-adv-x="1195" d="M93 636h789v-387h216v605h-1005v-218z" />
<glyph unicode="&#xad;" horiz-adv-x="1060" d="M200 89h649v234h-649v-234z" />
<glyph unicode="&#xae;" horiz-adv-x="1902" d="M118 729q0 -131 39.5 -251.5t112 -216.5t169 -167.5t216 -110t247.5 -38.5q160 0 304.5 60.5t250 164.5t167.5 250t62 309q0 162 -62 307.5t-167.5 249.5t-250 164.5t-304.5 60.5t-305 -60.5t-250 -164.5t-167 -249.5t-62 -307.5zM291 729q0 172 82 316t222.5 226 t306.5 82t306.5 -82t222.5 -226t82 -316q0 -173 -82 -317t-222.5 -226.5t-306.5 -82.5t-306.5 82.5t-222.5 226.5t-82 317zM602 322h173v385h77l229 -385h202q-247 394 -248 396q111 29 156 82t45 145q0 60 -17.5 104t-46.5 70.5t-76 41.5t-96.5 20.5t-116.5 5.5h-281v-865z M774 823v232h76h49q52 0 77.5 -2.5t48.5 -14t31 -35.5t8 -65q0 -69 -47 -92t-159 -23h-84z" />
<glyph unicode="&#xaf;" horiz-adv-x="1039" d="M159 1265h715v154h-715v-154z" />
<glyph unicode="&#xb0;" horiz-adv-x="828" d="M106 1212q0 -128 84.5 -219.5t232.5 -91.5q145 0 230 92.5t85 218.5q0 127 -85 214t-230 87q-147 0 -232 -87t-85 -214zM278 1211q0 69 42.5 109.5t103.5 40.5q57 0 99 -40.5t42 -109.5q0 -72 -41.5 -113t-100.5 -41q-60 0 -102.5 41t-42.5 113z" />
<glyph unicode="&#xb1;" horiz-adv-x="1136" d="M103 657h355v-330h235v330h356v231h-355v341h-236v-341h-355v-231zM105 0h938v202h-938v-202z" />
<glyph unicode="&#xb2;" horiz-adv-x="846" d="M157 593h558l19 160h-290q64 57 93 76t81 70q52 54 84 132.5t32 159.5q0 130 -84 208.5t-194 78.5q-199 0 -291 -130l81 -133q31 43 81.5 66.5t105.5 23.5q42 0 76.5 -33.5t34.5 -85.5q0 -15 -15 -43.5t-36 -60.5t-25 -40q-88 -98 -145 -149t-94.5 -78.5t-71.5 -63.5 v-158z" />
<glyph unicode="&#xb3;" horiz-adv-x="883" d="M146 650q130 -72 285 -72q95 0 171.5 29t125.5 92t49 152q0 76 -41 135.5t-113 73.5q133 26 137 185q0 61 -23 106.5t-63.5 71.5t-90.5 39t-110 13q-176 0 -316 -85l59 -124q110 62 220 62q67 0 107.5 -26t40.5 -79q0 -25 -4.5 -40.5t-19.5 -29.5t-46 -20t-80 -6h-123 v-144l121 2h7q165 0 165 -125q0 -66 -51.5 -99.5t-129.5 -33.5q-58 0 -115.5 18.5t-98.5 50.5z" />
<glyph unicode="&#xb4;" horiz-adv-x="795" d="M396 1207h198l339 407h-362z" />
<glyph unicode="&#xb5;" horiz-adv-x="1244" d="M117 -328h360v308h11q220 0 321 180l17 -160h310v1082h-360v-786q-68 -87 -162 -87q-72 0 -104.5 53.5t-32.5 191.5v628h-360v-1410z" />
<glyph unicode="&#xb6;" horiz-adv-x="1246" d="M99 1055q0 -75 26 -141.5t76.5 -119t132.5 -83t186 -30.5v-936h179v1559h194v-1559h179v1711h-411q-206 0 -330.5 -44t-178 -130.5t-53.5 -226.5z" />
<glyph unicode="&#xb7;" horiz-adv-x="646" d="M139 663q0 -79 49 -120t122 -41q75 0 123 41.5t48 119.5q0 81 -48 124t-123 43q-74 0 -122.5 -43t-48.5 -124z" />
<glyph unicode="&#xb8;" horiz-adv-x="759" d="M278 -383q85 -36 171 -36q109 0 181.5 57t72.5 155q0 82 -45.5 126.5t-121.5 44.5q-55 0 -118 -24v-72q24 2 33 2q87 0 87 -69q-1 -35 -30 -58.5t-82 -23.5q-46 0 -105 20z" />
<glyph unicode="&#xb9;" horiz-adv-x="857" d="M219 1170q112 58 149 76v-519h-132v-173h479v173h-137v732h-159q-14 -7 -97.5 -56t-102.5 -60v-173z" />
<glyph unicode="&#xba;" horiz-adv-x="965" d="M106 1134q0 -181 99 -299t275 -118q169 0 272 119.5t103 297.5q0 186 -97.5 303t-277.5 117q-176 0 -275 -118.5t-99 -301.5zM320 1134q0 236 160 236q168 0 168 -239q0 -118 -41.5 -174t-126.5 -56q-160 0 -160 233z" />
<glyph unicode="&#xbb;" horiz-adv-x="1048" d="M56 129h192l323 451l-317 440h-184l244 -449zM474 129h189l326 451l-317 440h-180l237 -449z" />
<glyph unicode="&#xbc;" horiz-adv-x="1604" d="M97 1219q0 -2 69 27.5t105 46.5v-518h-156v-175h481v175h-136v732h-157q-12 -5 -94.5 -53t-111.5 -62v-173zM295 0h227l995 1507h-218zM988 177h364v-177h175v177h95l17 148h-113v551h-184l-354 -544v-155zM1181 325l172 317v-317h-172z" />
<glyph unicode="&#xbd;" horiz-adv-x="1963" d="M148 1246q4 -3 166 76v-578h-157v-144h508v144h-142v765h-158q-4 -2 -52 -28.5t-94.5 -51.5t-70.5 -37v-146zM401 0h208l986 1509h-208zM1205 718l105 -114q41 50 102.5 81.5t121.5 31.5q49 0 82.5 -28.5t33.5 -76.5q0 -78 -87 -162l-313 -303l33 -147h562l6 153h-351 l187 162q170 147 170 292q0 53 -16 100t-51 88.5t-99 65.5t-151 24q-107 0 -193.5 -48.5t-141.5 -118.5z" />
<glyph unicode="&#xbe;" horiz-adv-x="1718" d="M94 646q128 -71 281 -71q148 0 247 71t99 204q0 75 -41 134.5t-115 73.5q72 14 104 66t34 120q0 60 -23 105.5t-64 71.5t-91 39t-109 13q-174 0 -312 -84l59 -125q110 61 218 61q65 0 104.5 -26t39.5 -78q0 -33 -8.5 -51.5t-42 -31t-97.5 -12.5h-121v-146l119 1h7 q164 0 164 -124q0 -65 -50.5 -98.5t-127.5 -33.5q-121 0 -212 68zM409 0h226l995 1507h-217zM1100 177h364v-177h176v177h94l18 148h-113v551h-185l-354 -544v-155zM1293 325l172 317v-317h-172z" />
<glyph unicode="&#xbf;" horiz-adv-x="1074" d="M58 43q0 -106 59.5 -187t154.5 -121t208 -40q101 0 212 35.5t182 106.5l-85 245q-131 -73 -249 -73q-79 0 -116 40t-37 104q0 39 16.5 79.5t46 86.5t63 98.5t76 139t76.5 185.5l-76 28q-52 -80 -130 -153.5t-143.5 -125.5t-126.5 -112.5t-96 -144t-35 -191.5zM466 1107 q0 -74 42 -117t114 -43q75 0 118.5 43t43.5 117q0 73 -43.5 116.5t-118.5 43.5q-72 0 -114 -43.5t-42 -116.5z" />
<glyph unicode="&#xc0;" horiz-adv-x="1536" d="M53 0h383l114 362h432l120 -362h383l-474 1456h-478zM301 1989l340 -407h198l-174 407h-364zM619 593l152 557l147 -557h-299z" />
<glyph unicode="&#xc1;" horiz-adv-x="1536" d="M53 0h383l114 362h432l120 -362h383l-474 1456h-478zM619 593l152 557l147 -557h-299zM673 1582h198l339 407h-362z" />
<glyph unicode="&#xc2;" horiz-adv-x="1536" d="M53 0h383l114 362h432l120 -362h383l-474 1456h-478zM413 1680h272l93 208l93 -208h272l-213 396h-304zM619 593l152 557l147 -557h-299z" />
<glyph unicode="&#xc3;" horiz-adv-x="1536" d="M53 0h383l114 362h432l120 -362h383l-474 1456h-478zM440 1630h142q12 54 30 76.5t45 22.5t73 -25t101.5 -49.5t103.5 -24.5q55 0 96 25.5t62.5 67.5t31.5 86t10 90h-142q-21 -81 -62 -81q-21 0 -62.5 20.5t-99.5 41t-118 20.5q-59 0 -102 -24.5t-65.5 -65.5t-33 -85.5 t-10.5 -94.5zM619 593l152 557l147 -557h-299z" />
<glyph unicode="&#xc4;" horiz-adv-x="1536" d="M53 0h383l114 362h432l120 -362h383l-474 1456h-478zM356 1756q0 -74 42.5 -116.5t116.5 -42.5q72 0 114 43t42 116q0 74 -42 117.5t-114 43.5q-74 0 -116.5 -43.5t-42.5 -117.5zM619 593l152 557l147 -557h-299zM873 1756q0 -73 43 -116t117 -43q73 0 115 42.5t42 116.5 q0 75 -42 118t-115 43q-74 0 -117 -43.5t-43 -117.5z" />
<glyph unicode="&#xc5;" horiz-adv-x="1536" d="M53 0h383l114 362h432l120 -362h383l-474 1456h-478zM551 1789q0 -91 62 -156.5t165 -65.5t166.5 65.5t63.5 156.5t-62.5 155.5t-167.5 64.5q-103 0 -165 -64t-62 -156zM619 593l152 557l147 -557h-299zM688 1788q0 42 24 74t66 32q43 0 68.5 -32t25.5 -74q0 -44 -25 -75 t-69 -31q-45 0 -67.5 29.5t-22.5 76.5z" />
<glyph unicode="&#xc6;" horiz-adv-x="2045" d="M12 0h372l208 358h373v-358h952l9 249h-670v366h607v242h-607v359h627l20 240h-996zM696 578l269 470v-470h-269z" />
<glyph unicode="&#xc7;" horiz-adv-x="1594" d="M116 733q0 -362 193 -557.5t543 -195.5q131 0 237.5 31t173 77.5t115.5 109.5t72 117.5t35 111.5l-279 113h-28q-11 -44 -27.5 -84t-44 -81t-61 -70.5t-82 -48t-105.5 -18.5h-2q-334 0 -334 495q0 132 21.5 223.5t65.5 146.5t104.5 81.5t145.5 32.5h11q67 0 121.5 -28 t90.5 -75t59 -96.5t37 -104.5h28l279 113q-8 38 -23 76.5t-41 84t-60.5 85.5t-85 78t-110 65.5t-140 44t-172.5 16.5q-350 0 -543.5 -194.5t-193.5 -548.5zM629 -407q85 -36 171 -36q109 0 181.5 57t72.5 155q0 82 -45.5 126.5t-121.5 44.5q-55 0 -118 -24v-72q24 2 33 2 q87 0 87 -69q-1 -35 -30 -58.5t-82 -23.5q-46 0 -105 20z" />
<glyph unicode="&#xc8;" horiz-adv-x="1354" d="M162 1989l340 -407h198l-174 407h-364zM171 0h1058l4 260h-682v359h624v253h-624v333h643l20 251h-1043v-1456z" />
<glyph unicode="&#xc9;" horiz-adv-x="1354" d="M171 0h1058l4 260h-682v359h624v253h-624v333h643l20 251h-1043v-1456zM535 1582h198l339 407h-362z" />
<glyph unicode="&#xca;" horiz-adv-x="1354" d="M171 0h1058l4 260h-682v359h624v253h-624v333h643l20 251h-1043v-1456zM274 1680h272l93 208l93 -208h272l-213 396h-304z" />
<glyph unicode="&#xcb;" horiz-adv-x="1354" d="M171 0h1058l4 260h-682v359h624v253h-624v333h643l20 251h-1043v-1456zM217 1756q0 -74 42.5 -116.5t116.5 -42.5q72 0 114 43t42 116q0 74 -42 117.5t-114 43.5q-74 0 -116.5 -43.5t-42.5 -117.5zM734 1756q0 -73 43 -116t117 -43q73 0 115 42.5t42 116.5q0 75 -42 118 t-115 43q-74 0 -117 -43.5t-43 -117.5z" />
<glyph unicode="&#xcc;" horiz-adv-x="1043" d="M67 1989l340 -407h198l-174 407h-364zM119 -6h812v204h-213v1054h213v204h-812v-204h220v-1054h-220v-204z" />
<glyph unicode="&#xcd;" horiz-adv-x="1043" d="M119 -6h812v204h-213v1054h213v204h-812v-204h220v-1054h-220v-204zM440 1582h198l339 407h-362z" />
<glyph unicode="&#xce;" horiz-adv-x="1043" d="M119 -6h812v204h-213v1054h213v204h-812v-204h220v-1054h-220v-204zM179 1680h272l93 208l93 -208h272l-213 396h-304z" />
<glyph unicode="&#xcf;" horiz-adv-x="1043" d="M119 -6h812v204h-213v1054h213v204h-812v-204h220v-1054h-220v-204zM122 1756q0 -74 42.5 -116.5t116.5 -42.5q72 0 114 43t42 116q0 74 -42 117.5t-114 43.5q-74 0 -116.5 -43.5t-42.5 -117.5zM639 1756q0 -73 43 -116t117 -43q73 0 115 42.5t42 116.5q0 75 -42 118 t-115 43q-74 0 -117 -43.5t-43 -117.5z" />
<glyph unicode="&#xd0;" horiz-adv-x="1555" d="M42 646h683v224h-683v-224zM171 6q166 -17 323 -17q214 0 377.5 36.5t270.5 102t174 163t95 211t28 256.5q0 261 -89.5 414.5t-288.5 224.5t-540 71q-151 0 -350 -14v-1448zM552 260v953q18 1 51 1q88 0 158.5 -13t119 -35t83.5 -57t55.5 -71.5t32.5 -86.5t15.5 -95 t3.5 -103q0 -119 -24 -207t-78.5 -154t-148 -99.5t-225.5 -33.5q-28 0 -43 1z" />
<glyph unicode="&#xd1;" horiz-adv-x="1643" d="M171 0h365v530l-17 359l575 -889h372v1456h-355v-553l17 -380l-598 933h-359v-1456zM423 1630h142q12 54 30 76.5t45 22.5t73 -25t101.5 -49.5t103.5 -24.5q55 0 96 25.5t62.5 67.5t31.5 86t10 90h-142q-21 -81 -62 -81q-21 0 -62.5 20.5t-99.5 41t-118 20.5 q-59 0 -102 -24.5t-65.5 -65.5t-33 -85.5t-10.5 -94.5z" />
<glyph unicode="&#xd2;" horiz-adv-x="1664" d="M116 723q0 -357 187 -551t529 -194q344 0 528.5 193.5t184.5 552.5q0 357 -186.5 554.5t-527.5 197.5t-528 -197.5t-187 -555.5zM347 1989l340 -407h198l-174 407h-364zM522 722q0 228 80.5 355t229.5 127q150 0 228 -126.5t78 -355.5q0 -228 -77.5 -350t-227.5 -122 q-152 0 -231.5 122t-79.5 350z" />
<glyph unicode="&#xd3;" horiz-adv-x="1664" d="M116 723q0 -357 187 -551t529 -194q344 0 528.5 193.5t184.5 552.5q0 357 -186.5 554.5t-527.5 197.5t-528 -197.5t-187 -555.5zM522 722q0 228 80.5 355t229.5 127q150 0 228 -126.5t78 -355.5q0 -228 -77.5 -350t-227.5 -122q-152 0 -231.5 122t-79.5 350zM719 1582 h198l339 407h-362z" />
<glyph unicode="&#xd4;" horiz-adv-x="1664" d="M116 723q0 -357 187 -551t529 -194q344 0 528.5 193.5t184.5 552.5q0 357 -186.5 554.5t-527.5 197.5t-528 -197.5t-187 -555.5zM458 1680h272l93 208l93 -208h272l-213 396h-304zM522 722q0 228 80.5 355t229.5 127q150 0 228 -126.5t78 -355.5q0 -228 -77.5 -350 t-227.5 -122q-152 0 -231.5 122t-79.5 350z" />
<glyph unicode="&#xd5;" horiz-adv-x="1664" d="M116 723q0 -357 187 -551t529 -194q344 0 528.5 193.5t184.5 552.5q0 357 -186.5 554.5t-527.5 197.5t-528 -197.5t-187 -555.5zM485 1630h142q12 54 30 76.5t45 22.5t73 -25t101.5 -49.5t103.5 -24.5q55 0 96 25.5t62.5 67.5t31.5 86t10 90h-142q-21 -81 -62 -81 q-21 0 -62.5 20.5t-99.5 41t-118 20.5q-59 0 -102 -24.5t-65.5 -65.5t-33 -85.5t-10.5 -94.5zM522 722q0 228 80.5 355t229.5 127q150 0 228 -126.5t78 -355.5q0 -228 -77.5 -350t-227.5 -122q-152 0 -231.5 122t-79.5 350z" />
<glyph unicode="&#xd6;" horiz-adv-x="1664" d="M116 723q0 -357 187 -551t529 -194q344 0 528.5 193.5t184.5 552.5q0 357 -186.5 554.5t-527.5 197.5t-528 -197.5t-187 -555.5zM401 1756q0 -74 42.5 -116.5t116.5 -42.5q72 0 114 43t42 116q0 74 -42 117.5t-114 43.5q-74 0 -116.5 -43.5t-42.5 -117.5zM522 722 q0 228 80.5 355t229.5 127q150 0 228 -126.5t78 -355.5q0 -228 -77.5 -350t-227.5 -122q-152 0 -231.5 122t-79.5 350zM918 1756q0 -73 43 -116t117 -43q73 0 115 42.5t42 116.5q0 75 -42 118t-115 43q-74 0 -117 -43.5t-43 -117.5z" />
<glyph unicode="&#xd7;" horiz-adv-x="994" d="M92 794l261 -277l-260 -271l143 -159l268 273l265 -270l146 157q-188 194 -261 270l260 277l-144 152l-266 -274l-270 274z" />
<glyph unicode="&#xd8;" horiz-adv-x="1665" d="M116 723q0 -255 96.5 -428.5t280.5 -253.5l-93 -246l140 -51l97 252q91 -18 195 -18q344 0 528.5 193.5t184.5 552.5q0 251 -94 425.5t-272 257.5l103 268l-146 56l-105 -275q-87 20 -200 20q-341 0 -528 -197.5t-187 -555.5zM522 722q0 228 80.5 355t229.5 127 q51 0 97 -16l-314 -829q-93 119 -93 363zM740 265l314 817q84 -121 84 -360q0 -228 -77.5 -350t-227.5 -122q-49 0 -93 15z" />
<glyph unicode="&#xd9;" horiz-adv-x="1531" d="M143 533q0 -264 157.5 -408.5t459.5 -144.5q301 0 463 146t162 407v923h-380v-899q0 -158 -61.5 -232t-183.5 -74q-118 0 -178 73t-60 231v901h-379v-923zM289 1989l340 -407h198l-174 407h-364z" />
<glyph unicode="&#xda;" horiz-adv-x="1531" d="M143 533q0 -264 157.5 -408.5t459.5 -144.5q301 0 463 146t162 407v923h-380v-899q0 -158 -61.5 -232t-183.5 -74q-118 0 -178 73t-60 231v901h-379v-923zM662 1582h198l339 407h-362z" />
<glyph unicode="&#xdb;" horiz-adv-x="1531" d="M143 533q0 -264 157.5 -408.5t459.5 -144.5q301 0 463 146t162 407v923h-380v-899q0 -158 -61.5 -232t-183.5 -74q-118 0 -178 73t-60 231v901h-379v-923zM401 1680h272l93 208l93 -208h272l-213 396h-304z" />
<glyph unicode="&#xdc;" horiz-adv-x="1531" d="M143 533q0 -264 157.5 -408.5t459.5 -144.5q301 0 463 146t162 407v923h-380v-899q0 -158 -61.5 -232t-183.5 -74q-118 0 -178 73t-60 231v901h-379v-923zM344 1756q0 -74 42.5 -116.5t116.5 -42.5q72 0 114 43t42 116q0 74 -42 117.5t-114 43.5q-74 0 -116.5 -43.5 t-42.5 -117.5zM861 1756q0 -73 43 -116t117 -43q73 0 115 42.5t42 116.5q0 75 -42 118t-115 43q-74 0 -117 -43.5t-43 -117.5z" />
<glyph unicode="&#xdd;" horiz-adv-x="1339" d="M0 1456l483 -886v-570h380v574l485 882h-399l-277 -529l-272 529h-400zM570 1582h198l339 407h-362z" />
<glyph unicode="&#xde;" horiz-adv-x="1450" d="M170 0h380v321h138q190 0 323 33t212 100t114.5 158.5t35.5 217.5q0 158 -69.5 253.5t-230 143.5t-431.5 48h-92v184h-380v-1459zM550 565v471h112q87 0 150 -10.5t100.5 -29t59 -48t29 -60.5t7.5 -75q0 -57 -16 -99t-56 -77t-115.5 -53.5t-185.5 -18.5h-85z" />
<glyph unicode="&#xdf;" horiz-adv-x="1338" d="M120 -1h361v955q0 269 187 269q144 0 144 -116q0 -45 -17.5 -85t-42 -70.5t-49 -61.5t-42 -72.5t-17.5 -89.5q0 -39 15.5 -72t39.5 -57.5t53.5 -47t59.5 -45t54 -46t39.5 -56t15.5 -69.5q0 -113 -118 -113q-43 0 -92.5 14.5t-80.5 31.5l-65 -217q180 -71 347 -71 q198 0 294.5 89t96.5 258q0 65 -21 121.5t-54 95.5t-73.5 71t-81 53.5t-73.5 38t-54 29.5t-21 23q0 12 22.5 31t54.5 46t63.5 62.5t54 91t22.5 119.5q0 118 -67.5 201.5t-177.5 122t-251 38.5q-232 0 -379 -129t-147 -347v-996z" />
<glyph unicode="&#xe0;" horiz-adv-x="1150" d="M71 1615l340 -407h198l-174 407h-364zM84 305q0 -155 90 -238t241 -83q206 0 340 134l37 -118h263v633q0 122 -35 213.5t-98.5 146.5t-145.5 81.5t-182 26.5q-230 0 -470 -120l65 -212q209 84 343 84q173 0 173 -154v-73l-143 1h-5q-69 0 -132.5 -9t-127 -31.5 t-109.5 -58t-75 -93t-29 -130.5zM402 311q0 155 236 155l65 -1v-215q-67 -74 -173 -74q-53 0 -90.5 34.5t-37.5 100.5z" />
<glyph unicode="&#xe1;" horiz-adv-x="1150" d="M84 305q0 -155 90 -238t241 -83q206 0 340 134l37 -118h263v633q0 122 -35 213.5t-98.5 146.5t-145.5 81.5t-182 26.5q-230 0 -470 -120l65 -212q209 84 343 84q173 0 173 -154v-73l-143 1h-5q-69 0 -132.5 -9t-127 -31.5t-109.5 -58t-75 -93t-29 -130.5zM402 311 q0 155 236 155l65 -1v-215q-67 -74 -173 -74q-53 0 -90.5 34.5t-37.5 100.5zM443 1208h198l339 407h-362z" />
<glyph unicode="&#xe2;" horiz-adv-x="1150" d="M84 305q0 -155 90 -238t241 -83q206 0 340 134l37 -118h263v633q0 122 -35 213.5t-98.5 146.5t-145.5 81.5t-182 26.5q-230 0 -470 -120l65 -212q209 84 343 84q173 0 173 -154v-73l-143 1h-5q-69 0 -132.5 -9t-127 -31.5t-109.5 -58t-75 -93t-29 -130.5zM183 1305h272 l93 208l93 -208h272l-213 396h-304zM402 311q0 155 236 155l65 -1v-215q-67 -74 -173 -74q-53 0 -90.5 34.5t-37.5 100.5z" />
<glyph unicode="&#xe3;" horiz-adv-x="1150" d="M84 305q0 -155 90 -238t241 -83q206 0 340 134l37 -118h263v633q0 122 -35 213.5t-98.5 146.5t-145.5 81.5t-182 26.5q-230 0 -470 -120l65 -212q209 84 343 84q173 0 173 -154v-73l-143 1h-5q-69 0 -132.5 -9t-127 -31.5t-109.5 -58t-75 -93t-29 -130.5zM210 1256h142 q12 54 30 76.5t45 22.5t73 -25t101.5 -49.5t103.5 -24.5q55 0 96 25.5t62.5 67.5t31.5 86t10 90h-142q-21 -81 -62 -81q-21 0 -62.5 20.5t-99.5 41t-118 20.5q-59 0 -102 -24.5t-65.5 -65.5t-33 -85.5t-10.5 -94.5zM402 311q0 155 236 155l65 -1v-215q-67 -74 -173 -74 q-53 0 -90.5 34.5t-37.5 100.5z" />
<glyph unicode="&#xe4;" horiz-adv-x="1150" d="M84 305q0 -155 90 -238t241 -83q206 0 340 134l37 -118h263v633q0 122 -35 213.5t-98.5 146.5t-145.5 81.5t-182 26.5q-230 0 -470 -120l65 -212q209 84 343 84q173 0 173 -154v-73l-143 1h-5q-69 0 -132.5 -9t-127 -31.5t-109.5 -58t-75 -93t-29 -130.5zM126 1381 q0 -74 42.5 -116.5t116.5 -42.5q72 0 114 43t42 116q0 74 -42 117.5t-114 43.5q-74 0 -116.5 -43.5t-42.5 -117.5zM402 311q0 155 236 155l65 -1v-215q-67 -74 -173 -74q-53 0 -90.5 34.5t-37.5 100.5zM643 1381q0 -73 43 -116t117 -43q73 0 115 42.5t42 116.5q0 75 -42 118 t-115 43q-74 0 -117 -43.5t-43 -117.5z" />
<glyph unicode="&#xe5;" horiz-adv-x="1150" d="M84 305q0 -155 90 -238t241 -83q206 0 340 134l37 -118h263v633q0 122 -35 213.5t-98.5 146.5t-145.5 81.5t-182 26.5q-230 0 -470 -120l65 -212q209 84 343 84q173 0 173 -154v-73l-143 1h-5q-69 0 -132.5 -9t-127 -31.5t-109.5 -58t-75 -93t-29 -130.5zM321 1415 q0 -91 62 -156.5t165 -65.5t166.5 65.5t63.5 156.5t-62.5 155.5t-167.5 64.5q-103 0 -165 -64t-62 -156zM402 311q0 155 236 155l65 -1v-215q-67 -74 -173 -74q-53 0 -90.5 34.5t-37.5 100.5zM458 1414q0 42 24 74t66 32q43 0 68.5 -32t25.5 -74q0 -44 -25 -75t-69 -31 q-45 0 -67.5 29.5t-22.5 76.5z" />
<glyph unicode="&#xe6;" horiz-adv-x="1753" d="M68 305q0 -159 92.5 -240t252.5 -81q290 0 423 156q32 -37 62.5 -62t76.5 -49.5t110.5 -36.5t146.5 -12q134 0 250 37t180 97l-58 192q-153 -98 -332 -98q-38 0 -66.5 3.5t-63 16t-58 35t-43 64t-26.5 99.5h27q119 0 212 8.5t173.5 29t133 53.5t82 84t29.5 119 q0 66 -23.5 130t-71 122t-133 94t-197.5 36q-237 0 -353 -168q-26 77 -110 121.5t-205 44.5q-228 0 -472 -122l67 -210q207 84 343 84q85 0 137 -37t52 -116v-71q-4 0 -81.5 1t-79.5 1h-5q-69 0 -132.5 -9t-127 -32.5t-109.5 -59t-74.5 -93.5t-28.5 -131zM387 309 q0 159 233 159q83 0 90 -1q0 -24 13.5 -92t25.5 -94q-20 -35 -75 -65.5t-145 -39.5q-2 0 -6.5 -0.5t-6.5 -0.5q-53 0 -91 34.5t-38 99.5zM1017 616q4 71 27 124.5t58 83.5t73 44.5t78 14.5q186 0 186 -131q0 -27 -8 -46.5t-32.5 -37t-66.5 -28.5t-112 -17.5t-167 -6.5h-36z " />
<glyph unicode="&#xe7;" horiz-adv-x="1132" d="M79 541q0 -259 152 -410t412 -151q159 0 265 63t166 199l-218 117h-13q-18 -62 -68.5 -99.5t-114.5 -37.5h-2q-92 0 -156.5 80.5t-64.5 238.5t64.5 239t156.5 81q64 0 115.5 -38t70.5 -100h12l218 118q-60 135 -166 198t-265 63q-260 0 -412 -151t-152 -410zM392 -406 q85 -36 171 -36q109 0 181.5 57t72.5 155q0 82 -45.5 126.5t-121.5 44.5q-55 0 -118 -24v-72q24 2 33 2q87 0 87 -69q-1 -35 -30 -58.5t-82 -23.5q-46 0 -105 20z" />
<glyph unicode="&#xe8;" horiz-adv-x="1206" d="M79 542q0 -259 157.5 -410.5t425.5 -151.5q135 0 250.5 37t179.5 97l-77 183h-17q-141 -89 -296 -89q-110 0 -181 59t-83 167h655q13 57 13 143q-3 119 -31 212t-84 165t-148.5 110t-218.5 38q-250 0 -397.5 -151t-147.5 -409zM151 1616l340 -407h198l-174 407h-364z M441 624q11 253 201 253q82 0 123 -61t41 -192h-365z" />
<glyph unicode="&#xe9;" horiz-adv-x="1206" d="M79 542q0 -259 157.5 -410.5t425.5 -151.5q135 0 250.5 37t179.5 97l-77 183h-17q-141 -89 -296 -89q-110 0 -181 59t-83 167h655q13 57 13 143q-3 119 -31 212t-84 165t-148.5 110t-218.5 38q-250 0 -397.5 -151t-147.5 -409zM441 624q11 253 201 253q82 0 123 -61 t41 -192h-365zM523 1209h198l339 407h-362z" />
<glyph unicode="&#xea;" horiz-adv-x="1206" d="M79 542q0 -259 157.5 -410.5t425.5 -151.5q135 0 250.5 37t179.5 97l-77 183h-17q-141 -89 -296 -89q-110 0 -181 59t-83 167h655q13 57 13 143q-3 119 -31 212t-84 165t-148.5 110t-218.5 38q-250 0 -397.5 -151t-147.5 -409zM263 1306h272l93 208l93 -208h272l-213 396 h-304zM441 624q11 253 201 253q82 0 123 -61t41 -192h-365z" />
<glyph unicode="&#xeb;" horiz-adv-x="1206" d="M79 542q0 -259 157.5 -410.5t425.5 -151.5q135 0 250.5 37t179.5 97l-77 183h-17q-141 -89 -296 -89q-110 0 -181 59t-83 167h655q13 57 13 143q-3 119 -31 212t-84 165t-148.5 110t-218.5 38q-250 0 -397.5 -151t-147.5 -409zM205 1382q0 -74 42.5 -116.5t116.5 -42.5 q72 0 114 43t42 116q0 74 -42 117.5t-114 43.5q-74 0 -116.5 -43.5t-42.5 -117.5zM441 624q11 253 201 253q82 0 123 -61t41 -192h-365zM722 1382q0 -73 43 -116t117 -43q73 0 115 42.5t42 116.5q0 75 -42 118t-115 43q-74 0 -117 -43.5t-43 -117.5z" />
<glyph unicode="&#xec;" horiz-adv-x="616" d="M-159 1616l340 -407h198l-174 407h-364zM133 0h360v1082h-360v-1082z" />
<glyph unicode="&#xed;" horiz-adv-x="616" d="M133 0h360v1082h-360v-1082zM214 1209h198l339 407h-362z" />
<glyph unicode="&#xee;" horiz-adv-x="616" d="M-47 1306h272l93 208l93 -208h272l-213 396h-304zM133 0h360v1082h-360v-1082z" />
<glyph unicode="&#xef;" horiz-adv-x="616" d="M-104 1382q0 -74 42.5 -116.5t116.5 -42.5q72 0 114 43t42 116q0 74 -42 117.5t-114 43.5q-74 0 -116.5 -43.5t-42.5 -117.5zM133 0h360v1082h-360v-1082zM413 1382q0 -73 43 -116t117 -43q73 0 115 42.5t42 116.5q0 75 -42 118t-115 43q-74 0 -117 -43.5t-43 -117.5z " />
<glyph unicode="&#xf0;" horiz-adv-x="1165" d="M57 474q0 -221 149.5 -359.5t386.5 -138.5q242 0 384.5 129t142.5 360q-3 212 -104 382q-28 47 -67 99.5t-67 86t-81.5 95.5t-74.5 87l197 82l-70 197l-263 -110l-103 105h-328l202 -205l-167 -71l69 -192l240 96q102 -106 167 -184q-68 16 -127 16q-219 0 -352.5 -130.5 t-133.5 -344.5zM320 477q0 129 70.5 201t202.5 72q130 0 203.5 -75.5t73.5 -203.5q0 -124 -71.5 -197.5t-199.5 -73.5q-130 0 -204.5 76.5t-74.5 200.5z" />
<glyph unicode="&#xf1;" horiz-adv-x="1264" d="M131 0h361v622q0 129 44 190t119 61q71 0 102.5 -54t31.5 -192v-627h361v671q0 204 -94.5 317.5t-273.5 113.5q-224 0 -323 -189l-18 169h-310v-1082zM359 1255h142q12 54 30 76.5t45 22.5t73 -25t101.5 -49.5t103.5 -24.5q55 0 96 25.5t62.5 67.5t31.5 86t10 90h-142 q-21 -81 -62 -81q-21 0 -62.5 20.5t-99.5 41t-118 20.5q-59 0 -102 -24.5t-65.5 -65.5t-33 -85.5t-10.5 -94.5z" />
<glyph unicode="&#xf2;" horiz-adv-x="1256" d="M79 545q0 -255 148 -411t401 -156q252 0 399.5 156t147.5 411q0 249 -148.5 403t-398.5 154q-251 0 -400 -154t-149 -403zM154 1616l340 -407h198l-174 407h-364zM438 545q0 328 190 328q188 0 188 -328q0 -337 -188 -337q-190 0 -190 337z" />
<glyph unicode="&#xf3;" horiz-adv-x="1256" d="M79 545q0 -255 148 -411t401 -156q252 0 399.5 156t147.5 411q0 249 -148.5 403t-398.5 154q-251 0 -400 -154t-149 -403zM438 545q0 328 190 328q188 0 188 -328q0 -337 -188 -337q-190 0 -190 337zM526 1209h198l339 407h-362z" />
<glyph unicode="&#xf4;" horiz-adv-x="1256" d="M79 545q0 -255 148 -411t401 -156q252 0 399.5 156t147.5 411q0 249 -148.5 403t-398.5 154q-251 0 -400 -154t-149 -403zM266 1306h272l93 208l93 -208h272l-213 396h-304zM438 545q0 328 190 328q188 0 188 -328q0 -337 -188 -337q-190 0 -190 337z" />
<glyph unicode="&#xf5;" horiz-adv-x="1256" d="M79 545q0 -255 148 -411t401 -156q252 0 399.5 156t147.5 411q0 249 -148.5 403t-398.5 154q-251 0 -400 -154t-149 -403zM293 1257h142q12 54 30 76.5t45 22.5t73 -25t101.5 -49.5t103.5 -24.5q55 0 96 25.5t62.5 67.5t31.5 86t10 90h-142q-21 -81 -62 -81 q-21 0 -62.5 20.5t-99.5 41t-118 20.5q-59 0 -102 -24.5t-65.5 -65.5t-33 -85.5t-10.5 -94.5zM438 545q0 328 190 328q188 0 188 -328q0 -337 -188 -337q-190 0 -190 337z" />
<glyph unicode="&#xf6;" horiz-adv-x="1256" d="M79 545q0 -255 148 -411t401 -156q252 0 399.5 156t147.5 411q0 249 -148.5 403t-398.5 154q-251 0 -400 -154t-149 -403zM209 1382q0 -74 42.5 -116.5t116.5 -42.5q72 0 114 43t42 116q0 74 -42 117.5t-114 43.5q-74 0 -116.5 -43.5t-42.5 -117.5zM438 545 q0 328 190 328q188 0 188 -328q0 -337 -188 -337q-190 0 -190 337zM726 1382q0 -73 43 -116t117 -43q73 0 115 42.5t42 116.5q0 75 -42 118t-115 43q-74 0 -117 -43.5t-43 -117.5z" />
<glyph unicode="&#xf7;" horiz-adv-x="1274" d="M82 490h1084v213h-1084v-213zM479 18h291v297h-291v-297zM479 885h300v282h-300v-282z" />
<glyph unicode="&#xf8;" horiz-adv-x="1254" d="M79 545q0 -255 148 -411t401 -156q252 0 399.5 156t147.5 411q0 249 -148.5 403t-398.5 154q-251 0 -400 -154t-149 -403zM233 -126l77 -52l742 1387l-83 52zM438 545q0 328 190 328q188 0 188 -328q0 -337 -188 -337q-190 0 -190 337z" />
<glyph unicode="&#xf9;" horiz-adv-x="1264" d="M117 409q0 -203 95.5 -316t275.5 -113q220 0 321 180l17 -160h310v1082h-360v-786q-68 -87 -162 -87q-72 0 -104.5 53.5t-32.5 191.5v628h-360v-673zM157 1616l340 -407h198l-174 407h-364z" />
<glyph unicode="&#xfa;" horiz-adv-x="1264" d="M117 409q0 -203 95.5 -316t275.5 -113q220 0 321 180l17 -160h310v1082h-360v-786q-68 -87 -162 -87q-72 0 -104.5 53.5t-32.5 191.5v628h-360v-673zM529 1209h198l339 407h-362z" />
<glyph unicode="&#xfb;" horiz-adv-x="1264" d="M117 409q0 -203 95.5 -316t275.5 -113q220 0 321 180l17 -160h310v1082h-360v-786q-68 -87 -162 -87q-72 0 -104.5 53.5t-32.5 191.5v628h-360v-673zM269 1306h272l93 208l93 -208h272l-213 396h-304z" />
<glyph unicode="&#xfc;" horiz-adv-x="1264" d="M117 409q0 -203 95.5 -316t275.5 -113q220 0 321 180l17 -160h310v1082h-360v-786q-68 -87 -162 -87q-72 0 -104.5 53.5t-32.5 191.5v628h-360v-673zM212 1382q0 -74 42.5 -116.5t116.5 -42.5q72 0 114 43t42 116q0 74 -42 117.5t-114 43.5q-74 0 -116.5 -43.5 t-42.5 -117.5zM729 1382q0 -73 43 -116t117 -43q73 0 115 42.5t42 116.5q0 75 -42 118t-115 43q-74 0 -117 -43.5t-43 -117.5z" />
<glyph unicode="&#xfd;" horiz-adv-x="1132" d="M-29 1082l429 -930l-219 -493l285 -112l685 1535h-332l-243 -600l-256 600h-349zM446 1209h198l339 407h-362z" />
<glyph unicode="&#xfe;" horiz-adv-x="1111" d="M187 -426h355v1004h-355v-1004zM188 0h318l10 135q39 -66 111 -110.5t178 -44.5q216 0 330 155t114 414q0 160 -46 282.5t-144.5 196.5t-238.5 74h-2q-196 0 -285 -160l10 207v411l-355 -20v-1540zM543 290v275q0 308 193 308q73 0 112 -71.5t39 -252.5 q0 -176 -46 -258.5t-119 -82.5q-70 0 -109 21t-70 61z" />
<glyph unicode="&#xff;" horiz-adv-x="1132" d="M-29 1082l429 -930l-219 -493l285 -112l685 1535h-332l-243 -600l-256 600h-349zM129 1382q0 -74 42.5 -116.5t116.5 -42.5q72 0 114 43t42 116q0 74 -42 117.5t-114 43.5q-74 0 -116.5 -43.5t-42.5 -117.5zM646 1382q0 -73 43 -116t117 -43q73 0 115 42.5t42 116.5 q0 75 -42 118t-115 43q-74 0 -117 -43.5t-43 -117.5z" />
<glyph unicode="&#x152;" horiz-adv-x="2232" d="M72 728q0 -358 177.5 -551t498.5 -193q218 0 347 77v-61h990l5 249h-696v376h638v241h-638v350h658l19 240h-976v-52q-67 41 -148 60t-200 19q-320 0 -497.5 -195.5t-177.5 -559.5zM397 727q0 235 88 365t263 130t260.5 -129.5t85.5 -365.5q0 -231 -85.5 -356.5 t-260.5 -125.5t-263 126t-88 356z" />
<glyph unicode="&#x153;" horiz-adv-x="1844" d="M62 544q0 -255 138 -407.5t369 -152.5q108 0 207 50.5t164 126.5q70 -80 180 -129t234 -49q126 0 231 38t150 90l-76 180h-14q-26 -33 -108 -61t-163 -28q-47 0 -89 9.5t-86 33t-75 72t-43 117.5h656q8 43 8 123q0 246 -114 393t-330 147q-102 0 -200.5 -56t-158.5 -134 q-57 78 -160.5 134t-212.5 56q-230 0 -368.5 -151t-138.5 -402zM340 545q0 171 56.5 252t172.5 81t172.5 -81t56.5 -252q0 -175 -56.5 -259t-172.5 -84t-172.5 84t-56.5 259zM1086 615q6 140 72.5 207t157.5 67q83 0 128 -62t54 -212h-412z" />
<glyph unicode="&#x178;" horiz-adv-x="1339" d="M0 1456l483 -886v-570h380v574l485 882h-399l-277 -529l-272 529h-400zM252 1756q0 -74 42.5 -116.5t116.5 -42.5q72 0 114 43t42 116q0 74 -42 117.5t-114 43.5q-74 0 -116.5 -43.5t-42.5 -117.5zM769 1756q0 -73 43 -116t117 -43q73 0 115 42.5t42 116.5q0 75 -42 118 t-115 43q-74 0 -117 -43.5t-43 -117.5z" />
<glyph unicode="&#x2c6;" horiz-adv-x="932" d="M84 1306h272l93 208l93 -208h272l-213 396h-304z" />
<glyph unicode="&#x2dc;" horiz-adv-x="971" d="M148 1255h142q12 54 30 76.5t45 22.5t73 -25t101.5 -49.5t103.5 -24.5q55 0 96 25.5t62.5 67.5t31.5 86t10 90h-142q-21 -81 -62 -81q-21 0 -62.5 20.5t-99.5 41t-118 20.5q-59 0 -102 -24.5t-65.5 -65.5t-33 -85.5t-10.5 -94.5z" />
<glyph unicode="&#x2000;" horiz-adv-x="1038" />
<glyph unicode="&#x2001;" horiz-adv-x="2076" />
<glyph unicode="&#x2002;" horiz-adv-x="1038" />
<glyph unicode="&#x2003;" horiz-adv-x="2076" />
<glyph unicode="&#x2004;" horiz-adv-x="692" />
<glyph unicode="&#x2005;" horiz-adv-x="519" />
<glyph unicode="&#x2006;" horiz-adv-x="346" />
<glyph unicode="&#x2007;" horiz-adv-x="346" />
<glyph unicode="&#x2008;" horiz-adv-x="259" />
<glyph unicode="&#x2009;" horiz-adv-x="415" />
<glyph unicode="&#x200a;" horiz-adv-x="115" />
<glyph unicode="&#x2010;" horiz-adv-x="960" d="M143 422h683v224h-683v-224z" />
<glyph unicode="&#x2011;" horiz-adv-x="960" d="M143 422h683v224h-683v-224z" />
<glyph unicode="&#x2012;" horiz-adv-x="960" d="M143 422h683v224h-683v-224z" />
<glyph unicode="&#x2013;" horiz-adv-x="1171" d="M137 440h897v226h-897v-226z" />
<glyph unicode="&#x2014;" horiz-adv-x="2240" d="M60 450h2120v210h-2120v-210z" />
<glyph unicode="&#x2018;" horiz-adv-x="530" d="M114 1033h300l36 522h-212z" />
<glyph unicode="&#x2019;" horiz-adv-x="530" d="M114 1033h212l124 522h-300z" />
<glyph unicode="&#x201a;" horiz-adv-x="524" d="M104 -380h211l123 521h-298z" />
<glyph unicode="&#x201c;" horiz-adv-x="975" d="M114 1033h300l36 522h-212zM540 1033h300l36 522h-212z" />
<glyph unicode="&#x201d;" horiz-adv-x="975" d="M114 1033h212l124 522h-300zM540 1033h212l124 522h-300z" />
<glyph unicode="&#x201e;" horiz-adv-x="963" d="M104 -380h211l124 521h-298zM518 -380h211l123 521h-298z" />
<glyph unicode="&#x2022;" horiz-adv-x="964" d="M117 694q0 -148 100 -247t253 -99q152 0 255 101.5t103 249.5q0 149 -100 248t-252 99q-151 0 -255 -102t-104 -250z" />
<glyph unicode="&#x2026;" horiz-adv-x="1532" d="M158 155q0 -79 49 -120t122 -41q75 0 123 41.5t48 119.5q0 81 -48 124t-123 43q-74 0 -122.5 -43t-48.5 -124zM654 155q0 -79 49 -120t122 -41q75 0 123 41.5t48 119.5q0 81 -48 124t-123 43q-74 0 -122.5 -43t-48.5 -124zM1151 155q0 -79 49 -120t122 -41q75 0 123 41.5 t48 119.5q0 81 -48 124t-123 43q-74 0 -122.5 -43t-48.5 -124z" />
<glyph unicode="&#x202f;" horiz-adv-x="415" />
<glyph unicode="&#x2039;" horiz-adv-x="920" d="M209 597l271 -426h203l-259 423l263 442h-199z" />
<glyph unicode="&#x203a;" horiz-adv-x="766" d="M133 171h201l280 415l-264 406h-200l248 -404z" />
<glyph unicode="&#x205f;" horiz-adv-x="519" />
<glyph unicode="&#x20ac;" horiz-adv-x="1391" d="M-91 679l2 -153h893l-2 153h-539v123h539l1 153h-893v-153h177v-123h-178zM78 733q0 -362 193 -557.5t543 -195.5q131 0 237.5 31t173 77.5t115.5 109.5t72 117.5t35 111.5l-279 113h-28q-11 -44 -27.5 -84t-44 -81t-61 -70.5t-82 -48t-105.5 -18.5h-2q-334 0 -334 495 q0 132 21.5 223.5t65.5 146.5t104.5 81.5t145.5 32.5h11q67 0 121.5 -28t90.5 -75t59 -96.5t37 -104.5h28l279 113q-8 38 -23 76.5t-41 84t-60.5 85.5t-85 78t-110 65.5t-140 44t-172.5 16.5q-350 0 -543.5 -194.5t-193.5 -548.5z" />
<glyph unicode="&#x2122;" horiz-adv-x="2050" d="M86 1296h255v-775h208v775h255v160h-718v-160zM906 521h196l19 567l238 -490h103l239 489l19 -566h195l-20 935h-208l-275 -577l-278 577h-208z" />
<glyph unicode="&#x25fc;" horiz-adv-x="1080" d="M0 0v1080h1080v-1080h-1080z" />
</font>
</defs>
</svg>
